<svg width="216" height="32" viewBox="0 0 216 32" fill="none" xmlns="http://www.w3.org/2000/svg">
<path d="M13.3049 1.12568L19.6385 10.994V10.9909C19.6822 11.0608 19.697 11.145 19.6797 11.2257L16.4749 25.2127C16.4641 25.2558 16.4444 25.2961 16.4171 25.3311C16.3898 25.3661 16.3554 25.3949 16.3162 25.4158L10.354 28.5159C10.3034 28.5389 10.2477 28.5482 10.1925 28.5429C10.1372 28.5377 10.0843 28.518 10.039 28.4859C9.99374 28.4538 9.95767 28.4103 9.93443 28.3599C9.91118 28.3095 9.90157 28.2539 9.90655 28.1986L12.7401 1.25896C12.7514 1.19854 12.78 1.14271 12.8225 1.09824C12.8649 1.05378 12.9193 1.0226 12.9792 1.00848C13.039 0.994366 13.1016 0.997928 13.1594 1.01873C13.2173 1.03954 13.2678 1.0767 13.3049 1.12568Z" fill="#181818"/>
<path d="M29.7511 12.295L35.0026 9.13144H35.0153C35.0704 9.10374 35.1324 9.09271 35.1937 9.0997C35.255 9.10669 35.3129 9.13139 35.3604 9.17078C35.4078 9.21017 35.4428 9.26254 35.461 9.32149C35.4791 9.38044 35.4797 9.44341 35.4627 9.50269L27.9329 30.02C27.9115 30.0695 27.8778 30.1127 27.835 30.1456C27.7922 30.1784 27.7418 30.1998 27.6884 30.2078C27.635 30.2157 27.5806 30.2099 27.5301 30.1909C27.4796 30.172 27.4347 30.1404 27.3998 30.0993L24.6392 26.4851C24.6082 26.444 24.5876 26.3959 24.5793 26.3451C24.571 26.2942 24.5753 26.2421 24.5916 26.1932L29.621 12.4505C29.6449 12.3851 29.6909 12.3301 29.7511 12.295Z" fill="#181818"/>
<path d="M11.1725 7.91293L7.81537 2.62336C7.77852 2.57335 7.7278 2.53525 7.6695 2.51379C7.61121 2.49234 7.54789 2.48846 7.48741 2.50265C7.42694 2.51684 7.37195 2.54847 7.32928 2.59362C7.28661 2.63877 7.25814 2.69545 7.24738 2.75664L5.00082 24.5051C4.99695 24.5588 5.00679 24.6126 5.02943 24.6614C5.05207 24.7102 5.08676 24.7525 5.13023 24.7842C5.17371 24.816 5.22454 24.8361 5.27795 24.8428C5.33136 24.8495 5.38559 24.8424 5.43554 24.8224L9.51615 22.8773C9.56356 22.8538 9.60436 22.8189 9.63484 22.7757C9.66532 22.7325 9.68451 22.6823 9.69067 22.6298L11.2201 8.10966C11.2261 8.04064 11.2094 7.97155 11.1725 7.91293Z" fill="#181818"/>
<path d="M20.787 11.3113L30.7887 5.42522C30.8445 5.39723 30.9074 5.38635 30.9694 5.39396C31.0315 5.40157 31.0899 5.42733 31.1373 5.46799C31.1847 5.50866 31.2191 5.56243 31.2361 5.62256C31.2531 5.68269 31.252 5.7465 31.2329 5.80599L21.9611 31.2511C21.9391 31.3013 21.9046 31.3449 21.8608 31.3777C21.817 31.4106 21.7654 31.4315 21.7111 31.4386C21.6568 31.4456 21.6016 31.4385 21.5509 31.4178C21.5002 31.3972 21.4557 31.3638 21.4217 31.3209L17.4775 25.7521C17.4531 25.7163 17.4363 25.6759 17.4281 25.6333C17.4199 25.5907 17.4205 25.5469 17.4299 25.5046L20.6411 11.5081C20.6501 11.4668 20.6678 11.4279 20.6929 11.394C20.7181 11.3601 20.7502 11.3319 20.787 11.3113Z" fill="#181818"/>
<path d="M75.6026 10.9823H77.5382C77.8327 10.9823 78.1152 11.0993 78.3235 11.3076C78.5318 11.5159 78.6488 11.7983 78.6488 12.0929V14.46C78.6488 14.5442 78.6154 14.6249 78.5559 14.6844C78.4963 14.7439 78.4156 14.7773 78.3315 14.7773H77.094C77.0098 14.7773 76.9291 14.7439 76.8696 14.6844C76.8101 14.6249 76.7767 14.5442 76.7767 14.46V12.829H63.9066V14.46C63.9066 14.5442 63.8731 14.6249 63.8136 14.6844C63.7541 14.7439 63.6734 14.7773 63.5892 14.7773H62.3581C62.2739 14.7773 62.1932 14.7439 62.1337 14.6844C62.0742 14.6249 62.0408 14.5442 62.0408 14.46V12.0929C62.0408 11.7983 62.1578 11.5159 62.3661 11.3076C62.5743 11.0993 62.8568 10.9823 63.1514 10.9823H64.8902L63.7828 9.04353C63.7407 8.95935 63.7231 8.865 63.7321 8.77128C63.741 8.67757 63.7762 8.58827 63.8336 8.51362C63.8843 8.44884 63.9494 8.39676 64.0238 8.36151C64.0981 8.32626 64.1797 8.30881 64.2619 8.31054H65.3218C65.4166 8.31054 65.5096 8.33697 65.5903 8.38685C65.671 8.43672 65.7363 8.50809 65.7787 8.59295L67.0987 10.9823H69.3611L68.2505 9.04353C68.2084 8.95935 68.1908 8.865 68.1998 8.77128C68.2088 8.67757 68.2439 8.58827 68.3013 8.51362C68.352 8.44884 68.4172 8.39676 68.4915 8.36151C68.5659 8.32626 68.6474 8.30881 68.7297 8.31054H69.7895C69.8841 8.31003 69.9768 8.33627 70.0571 8.38624C70.1374 8.43621 70.2019 8.50787 70.2432 8.59295L71.5664 10.9823H73.3973L74.7268 8.59295C74.7696 8.50832 74.8348 8.43715 74.9155 8.38731C74.9961 8.33748 75.089 8.31091 75.1838 8.31054H76.2404C76.3227 8.30881 76.4042 8.32626 76.4786 8.36151C76.5529 8.39676 76.618 8.44884 76.6688 8.51362C76.7261 8.58827 76.7613 8.67757 76.7703 8.77128C76.7793 8.865 76.7617 8.95935 76.7195 9.04353L75.6026 10.9823Z" fill="#181818"/>
<path d="M71.5536 18.4616H77.6746L77.6872 18.4743C77.7714 18.4743 77.8521 18.5077 77.9116 18.5672C77.9711 18.6268 78.0046 18.7075 78.0046 18.7916V20.0228C78.0046 20.1069 77.9711 20.1876 77.9116 20.2472C77.8521 20.3067 77.7714 20.3401 77.6872 20.3401H71.5663V23.7448C71.5665 23.9377 71.5159 24.1273 71.4195 24.2944C71.3232 24.4615 71.1844 24.6003 71.0174 24.6968L68.6503 26.0612C68.6113 26.084 68.5683 26.0989 68.5236 26.105C68.4788 26.1111 68.4334 26.1084 68.3897 26.0969C68.3461 26.0854 68.3052 26.0654 68.2693 26.038C68.2334 26.0107 68.2033 25.9765 68.1806 25.9374L67.546 24.8649C67.5234 24.8261 67.5088 24.7831 67.5029 24.7385C67.4971 24.6939 67.5001 24.6486 67.5119 24.6052C67.5237 24.5618 67.5441 24.5212 67.5717 24.4857C67.5993 24.4502 67.6337 24.4206 67.6729 24.3985L69.6307 23.2371V20.3084H63.0116C62.9275 20.3084 62.8468 20.2749 62.7873 20.2154C62.7278 20.1559 62.6943 20.0752 62.6943 19.9911V18.7758C62.6943 18.6916 62.7278 18.6109 62.7873 18.5514C62.8468 18.4919 62.9275 18.4584 63.0116 18.4584H69.618V17.8238C69.6176 17.7325 69.6438 17.6431 69.6934 17.5665C69.743 17.4898 69.8138 17.4293 69.8973 17.3923C70.8527 16.9947 71.7859 16.5455 72.6928 16.0469H65.309C65.2164 16.0469 65.1276 16.0101 65.0622 15.9447C64.9967 15.8792 64.9599 15.7904 64.9599 15.6978V14.6031C64.9595 14.5556 64.9686 14.5086 64.9867 14.4647C65.0047 14.4208 65.0314 14.3809 65.0651 14.3475C65.0988 14.3141 65.1389 14.2877 65.183 14.2701C65.227 14.2524 65.2742 14.2437 65.3217 14.2446H75.409C75.503 14.2454 75.5929 14.2831 75.6593 14.3496C75.7258 14.416 75.7635 14.506 75.7643 14.6V15.7105C75.7641 15.7983 75.7415 15.8845 75.6988 15.9611C75.6561 16.0377 75.5945 16.1021 75.52 16.1484C74.768 16.6085 72.477 17.9983 71.5536 18.4616Z" fill="#181818"/>
<path d="M96.5513 10.0082C96.5513 9.70773 96.432 9.4196 96.2195 9.20716C96.0071 8.99471 95.719 8.87537 95.4185 8.87537H82.1391C82.065 8.87537 81.994 8.90479 81.9417 8.95715C81.8893 9.00952 81.8599 9.08054 81.8599 9.1546V10.7412C81.8599 10.8152 81.8893 10.8862 81.9417 10.9386C81.994 10.991 82.065 11.0204 82.1391 11.0204H94.4412V22.1262L90.7572 24.249C90.6708 24.2989 90.6075 24.3809 90.5814 24.4773C90.5552 24.5736 90.5682 24.6764 90.6176 24.7631L91.2967 25.9371C91.347 26.0231 91.4293 26.0857 91.5256 26.1112C91.6219 26.1368 91.7244 26.1232 91.8107 26.0736L96.0214 23.6462C96.1887 23.5499 96.3276 23.4112 96.424 23.2441C96.5204 23.0769 96.5709 22.8872 96.5704 22.6942L96.5513 10.0082Z" fill="#181818"/>
<path d="M92.3692 17.8935V16.5513C92.3739 16.4644 92.3533 16.378 92.3099 16.3025C92.2666 16.2271 92.2023 16.1658 92.1249 16.1261C92.0365 16.0913 91.9404 16.0809 91.8466 16.0959C91.7528 16.111 91.6648 16.151 91.5918 16.2118C88.651 18.402 85.5205 20.3252 82.2375 21.9583C82.1361 22.0092 82.0502 22.0865 81.9889 22.1819C81.9275 22.2773 81.8928 22.3875 81.8884 22.5009V23.8685C81.8824 23.9354 81.8923 24.0028 81.9171 24.0652C81.942 24.1276 81.9811 24.1833 82.0315 24.2277C82.0818 24.2722 82.1419 24.3042 82.2069 24.3212C82.2719 24.3382 82.34 24.3396 82.4056 24.3254C82.4675 24.3142 82.5274 24.2939 82.5833 24.2651C86.794 22.0439 89.8275 20.1686 92.1217 18.3758C92.196 18.3187 92.2567 18.2458 92.2995 18.1624C92.3423 18.079 92.3661 17.9872 92.3692 17.8935Z" fill="#181818"/>
<path d="M88.6217 15.8311L87.8506 16.8972H87.8348C87.7792 16.9805 87.6929 17.0384 87.5947 17.058C87.4965 17.0776 87.3945 17.0575 87.3112 17.0019L83.1576 14.235C83.0743 14.1788 83.0163 14.0922 82.9961 13.9937C82.9759 13.8952 82.9952 13.7927 83.0497 13.7083L83.8335 12.6484C83.8896 12.5649 83.9766 12.507 84.0753 12.4874C84.174 12.4678 84.2764 12.488 84.3602 12.5437L88.517 15.3043C88.5587 15.3318 88.5945 15.3674 88.6224 15.4088C88.6502 15.4503 88.6696 15.4968 88.6793 15.5458C88.6891 15.5948 88.689 15.6453 88.6791 15.6942C88.6692 15.7432 88.6497 15.7897 88.6217 15.8311Z" fill="#181818"/>
<path d="M44.0619 10.8366C49.5672 10.8176 53.9937 10.5605 57.5984 10.056C57.6684 10.0454 57.7356 10.0205 57.7956 9.98281C57.8557 9.94515 57.9073 9.89554 57.9474 9.83708C57.9868 9.77802 58.0133 9.71136 58.0254 9.6414C58.0374 9.57144 58.0346 9.49974 58.0172 9.43092L57.8681 8.83121C57.8549 8.75759 57.8269 8.68739 57.7859 8.62484C57.745 8.56228 57.6917 8.50865 57.6295 8.46716C57.5673 8.42568 57.4973 8.39719 57.4238 8.38341C57.3503 8.36963 57.2748 8.37084 57.2017 8.38697C53.2956 8.92957 49.9226 9.11679 44.0841 9.139C43.9492 9.13899 43.8197 9.19238 43.724 9.2875C43.6283 9.38263 43.5741 9.51175 43.5732 9.64669L43.5479 10.3289C43.5474 10.396 43.5604 10.4624 43.5859 10.5244C43.6115 10.5864 43.6492 10.6427 43.6967 10.69C43.7443 10.7373 43.8008 10.7746 43.863 10.7997C43.9251 10.8249 43.9917 10.8375 44.0587 10.8366H44.0619Z" fill="#181818"/>
<path d="M58.0616 12.6578H56.1356L56.6052 11.763C56.645 11.6603 56.6508 11.5474 56.6217 11.4412C56.5925 11.3349 56.53 11.2408 56.4434 11.1728C56.3522 11.1032 56.2407 11.0654 56.1261 11.0649H55.2852C55.1846 11.0684 55.0871 11.1 55.0035 11.1561C54.92 11.2122 54.8538 11.2905 54.8124 11.3822L54.146 12.6514H51.6774L51.103 11.4139C51.0653 11.3139 50.9988 11.2273 50.9118 11.1651C50.8248 11.103 50.7212 11.0681 50.6144 11.0649H49.875C49.7979 11.0636 49.7215 11.0794 49.6512 11.1112C49.581 11.143 49.5187 11.1901 49.4689 11.2489C49.4114 11.3161 49.3732 11.3976 49.3581 11.4847C49.343 11.5718 49.3517 11.6613 49.3832 11.7439L49.7957 12.6388H47.235L46.6988 11.4774C46.6631 11.3737 46.5959 11.2837 46.5066 11.2199C46.4173 11.1562 46.3103 11.122 46.2006 11.122L45.4486 11.1411C45.3722 11.1417 45.2969 11.1584 45.2274 11.1901C45.158 11.2218 45.096 11.2678 45.0456 11.3251C44.9896 11.3931 44.9522 11.4745 44.9372 11.5613C44.9222 11.648 44.93 11.7372 44.9599 11.8201L45.3312 12.6578H43.3004C43.1952 12.6574 43.0911 12.6778 42.9939 12.7178C42.8967 12.7578 42.8084 12.8167 42.734 12.8911C42.6597 12.9654 42.6008 13.0537 42.5608 13.1509C42.5207 13.2481 42.5003 13.3523 42.5008 13.4574V15.0154C42.5003 15.0528 42.5073 15.0898 42.5213 15.1245C42.5353 15.1591 42.5561 15.1906 42.5823 15.2172C42.6086 15.2437 42.6399 15.2648 42.6743 15.2792C42.7088 15.2936 42.7458 15.301 42.7832 15.301H44.0524C44.0899 15.301 44.127 15.2936 44.1617 15.2793C44.1963 15.2649 44.2278 15.2439 44.2543 15.2173C44.2809 15.1908 44.3019 15.1593 44.3162 15.1247C44.3306 15.09 44.338 15.0529 44.338 15.0154V14.2951H57.0462V15.0027C57.0462 15.0785 57.0763 15.1511 57.1299 15.2047C57.1835 15.2582 57.2561 15.2883 57.3318 15.2883H58.6011C58.6768 15.2883 58.7494 15.2582 58.803 15.2047C58.8566 15.1511 58.8867 15.0785 58.8867 15.0027V13.4447C58.885 13.3386 58.8623 13.2339 58.8198 13.1367C58.7773 13.0394 58.7158 12.9516 58.639 12.8784C58.5622 12.8052 58.4716 12.7479 58.3725 12.7101C58.2734 12.6722 58.1677 12.6544 58.0616 12.6578Z" fill="#181818"/>
<path fill-rule="evenodd" clip-rule="evenodd" d="M48.8213 15.8468H58.5468V15.8309C58.631 15.8309 58.7117 15.8644 58.7712 15.9239C58.8307 15.9834 58.8641 16.0641 58.8641 16.1482V17.0811C58.8641 17.1653 58.8307 17.246 58.7712 17.3055C58.7117 17.365 58.631 17.3984 58.5468 17.3984H48.7642L48.2818 18.179H56.7858C56.8545 18.1769 56.923 18.1884 56.9874 18.2127C57.0517 18.2371 57.1106 18.2739 57.1607 18.3211C57.2108 18.3682 57.2511 18.4248 57.2793 18.4875C57.3075 18.5503 57.3231 18.618 57.3252 18.6867V19.5308C57.2998 19.9211 54.8597 21.7551 53.5397 22.5896C54.5931 23.0466 57.1284 24.0778 58.1502 24.3571C58.2696 24.3913 58.3733 24.4661 58.4434 24.5687C58.5135 24.6712 58.5456 24.795 58.5341 24.9187V25.6168C58.5344 25.6936 58.5167 25.7695 58.4826 25.8383C58.4484 25.9072 58.3987 25.9671 58.3374 26.0134C58.2384 26.09 58.1167 26.1313 57.9915 26.1308C57.9433 26.1307 57.8953 26.1243 57.8487 26.1118C55.6609 25.5404 53.2814 24.4601 51.6948 23.7397L51.4613 23.6336H51.4391C49.5501 24.654 47.5619 25.4791 45.5054 26.0959C45.4224 26.1194 45.335 26.1233 45.2502 26.1073C45.1655 26.0913 45.0855 26.0559 45.0167 26.0039C44.954 25.9578 44.9029 25.8976 44.8677 25.8281C44.8324 25.7587 44.8139 25.682 44.8136 25.6041V24.8013C44.815 24.6884 44.8542 24.5791 44.9249 24.4911C44.9957 24.4031 45.0939 24.3414 45.2039 24.3158C46.6615 23.8699 48.0777 23.2987 49.4369 22.6087C48.5325 22.0724 47.4886 21.4029 46.6572 20.8254L45.8735 22.0534L44.8136 23.7637L43.6555 25.5406C43.4682 25.8611 43.1795 25.8072 43.0906 25.6676L42.6179 24.833C42.5225 24.7218 42.4718 24.5792 42.4753 24.4327C42.4788 24.2863 42.5364 24.1463 42.6369 24.0398L46.9174 17.3953H42.8495C42.7561 17.3953 42.6665 17.3582 42.6004 17.2921C42.5344 17.2261 42.4973 17.1365 42.4973 17.0431V16.199C42.4973 16.1056 42.5344 16.016 42.6004 15.95C42.6665 15.8839 42.7561 15.8468 42.8495 15.8468H47.0539V15.0281C47.0539 14.9617 47.0803 14.8979 47.1273 14.8509C47.1743 14.8039 47.238 14.7775 47.3045 14.7775H48.5738C48.6065 14.7775 48.639 14.784 48.6692 14.7966C48.6995 14.8092 48.7269 14.8278 48.7499 14.8511C48.7729 14.8744 48.7911 14.9021 48.8033 14.9325C48.8156 14.9628 48.8217 14.9954 48.8213 15.0281V15.8468ZM51.4518 21.6361C50.321 21.0563 49.2302 20.4017 48.1866 19.6767H54.6217C53.6178 20.4116 52.5579 21.0667 51.4518 21.6361Z" fill="#181818"/>
<path opacity="0.15" d="M108 26V6" stroke="black"/>
<path d="M137.684 6.72749C135.232 2.98815 129.623 3.09373 127.348 7.04426L127.307 7.115C127.573 7.11713 127.841 7.04002 128.076 6.87695L128.564 6.53765C130.845 4.95092 133.995 5.65457 135.385 8.06118L141.133 18.0173C142.083 19.6629 140.896 21.7199 138.995 21.7199H136.839C136.789 21.7199 136.74 21.7226 136.691 21.728H130.928C130.194 21.728 129.599 22.323 129.599 23.0571C129.599 23.7911 130.194 24.3862 130.928 24.3862H138.049C138.099 24.3862 138.148 24.3834 138.196 24.3781H138.995C142.879 24.3781 145.33 20.2406 143.526 16.8518L142.184 14.5211L137.684 6.72749Z" fill="black"/>
<path d="M145.59 20.4598C145.567 20.5786 145.559 20.7026 145.57 20.8292L145.62 21.4213C145.853 24.1904 143.669 26.567 140.89 26.567L129.393 26.567C127.493 26.567 126.306 24.51 127.256 22.8644L128.334 20.9966C128.373 20.929 128.405 20.8594 128.431 20.7886L131.19 16.0076C131.556 15.3718 131.338 14.559 130.703 14.1922C130.067 13.8254 129.254 14.0434 128.887 14.6793L125.327 20.8502C125.289 20.9167 125.257 20.9852 125.231 21.055L124.954 21.5353C122.98 24.953 125.447 29.2252 129.393 29.2252L140.331 29.2252C144.766 29.095 147.549 24.3923 145.59 20.4598Z" fill="black"/>
<path d="M125.012 29.2275C124.885 29.0578 124.716 28.9158 124.512 28.8195L123.974 28.5667C121.459 27.3843 120.493 24.3041 121.883 21.8975L127.631 11.9414C128.581 10.2958 130.956 10.2958 131.906 11.9414L132.346 12.7034C132.373 12.7779 132.406 12.8512 132.447 12.9222L136.007 19.0931C136.374 19.7289 137.187 19.947 137.823 19.5802C138.459 19.2133 138.677 18.4005 138.31 17.7647L135.389 12.7014C135.362 12.626 135.328 12.5519 135.287 12.4801L134.208 10.6123C132.235 7.19453 127.302 7.19454 125.329 10.6123L119.604 20.5273C117.694 24.48 120.535 29.1767 125.012 29.2275Z" fill="black"/>
<path d="M167.044 23.6657H171.708L166.142 8.39774H160.224L154.614 23.6657H159.19L160.268 20.4537H165.988L167.044 23.6657ZM161.434 16.9337L163.018 12.1597H163.282L164.844 16.9337H161.434Z" fill="black"/>
<path d="M177.418 19.9037V8.39774H173.04V23.6657H183.072V19.9037H177.418Z" fill="black"/>
<path d="M189.385 19.9037V17.7477H194.511V14.1177H189.385V12.1817H194.973V8.39774H185.007V23.6657H195.105V19.9037H189.385Z" fill="black"/>
<path d="M196.213 23.6657H201.383L204.023 18.6057H204.155L206.707 23.6657H211.965L207.411 15.7677L211.811 8.39774H206.663L204.221 13.2597H204.089L201.603 8.39774H196.499L200.877 15.8997L196.213 23.6657Z" fill="black"/>
</svg>
